<?xml version="1.0" encoding="UTF-8"?><svg id="Calque_1" xmlns="http://www.w3.org/2000/svg" viewBox="0 0 1000.82 640.35"><defs><style>.cls-1{fill:#fffbee;}</style></defs><g><path class="cls-1" d="M834.64,517.41l-9.87-1.97-21.72-4.94c-3.95-12.83-17.77-67.14-23.7-108.61-.99-7.41-1.98-13.83-2.47-20.24l-.49-9.87-7.41,6.42c-26.17,22.22-47.89,83.44-63.19,127.87-5.92,15.8-11.85,32.09-14.81,37.52-1.48,0-2.96,.49-3.95,.49-11.85,0-22.71-6.42-32.09-19.26-18.27-23.7-24.69-59.74-23.2-69.12,2.47-1.97,5.43-2.47,11.85-3.46,7.9-1.48,17.77-2.96,32.58-8.89l2.47-.99,.49-2.47c3.46-17.28,1.98-109.11-4.44-117.01l-1.48-1.97h-2.47l-3.46,.49-.99,1.97c-20.24,18.76-50.36,73.07-72.08,115.04l-3.95,7.4v.49l-.49,.99c-.49,8.39,0,19.75,.49,32.58,.49,34.07,1.97,80.48-13.82,96.27-3.46,3.95-7.9,5.92-13.83,5.92-7.41,0-16.79-3.46-27.65-9.87-9.87-42.95-14.32-90.35-18.27-136.26-2.96-34.56-6.42-70.6-12.34-104.67v-.99l-.49-7.41c-7.41-70.11-24.19-134.29-41.96-201.93-9.38-34.56-18.76-71.09-27.16-109.11,3.95-2.96,19.75-5.92,27.65-7.41,8.4-1.48,13.33-2.47,14.81-3.45,2.47-.49,4.44-.99,5.92-.99,2.96,0,4.94,.99,5.92,3.46,42.46,112.07,78.5,214.27,94.79,326.34l1.48,11.35,7.4-8.89c34.56-45.92,68.63-70.6,95.29-70.6,11.36,0,21.23,4.44,29.13,12.84,17.77,19.75,24.69,59.25,19.26,108.62l-.99,12.34,9.38-7.9c21.23-18.27,23.7-50.36,25.67-80.97,3.46-45.92,6.42-85.41,61.71-86.4-16.79,67.64-.99,258.21,2.47,297.21Z"/><path class="cls-1" d="M232.31,437.43c-13.82,80.97-16.79,149.1-9.87,202.42-3.46,.49-6.91,.49-10.37,.49-18.27,0-32.09-7.9-41.97-24.69-46.9-81.46,19.75-349.55,105.16-497.66,31.1-53.82,60.73-83.44,83.44-83.44,4.44,0,8.39,.99,12.34,2.96,7.41,13.33,55.79,145.15,64.68,276.48l.49,4.94,4.94-.49h4.44c12.84,0,29.13,2.96,50.85,9.38l-.99,1.48c-3.46,4.94-11.85,11.85-20.24,19.75-23.2,19.75-37.52,33.57-35.55,44.93,5.43,164.9-4.94,187.12-13.83,206.87-10.86,21.23-20.74,23.7-28.14,23.7-1.97,0-3.95,0-5.92-.49,.49-24.19,0-124.91-2.47-185.64v-8.89l-7.4,4.94c-14.81,9.87-31.6,15.31-48.39,15.31-25.67,0-49.87-12.34-64.68-32.09,23.7-13.33,65.66-36.54,112.07-63.2l2.47-1.48-.49-2.97c-7.9-63.69-21.23-123.92-33.57-181.69l-3.46-15.31-2.47-11.85-6.42,10.37c-41.96,68.63-73.07,145.15-94.3,234.51l-10.37,51.35Z"/></g><path class="cls-1" d="M77.28,282.21C36.36,232.9,11.65,256.7,.91,305.88c14.39,8.25,49.94,16.82,61.11,32.55-40.3-23.49-58.28-12.38-62.01,32.25,11.19,32.16,45.92,12.78,83.23,18.12,9.74,.23,6.01-22.39,4.74-28.9-5.53-8.87-13.34-13.89-21.3-22.7,15.75,8.52,24.72,19.87,30.68,19.26,18.54-21.8-7.83-48.09-20.07-74.26h0Z"/><path class="cls-1" d="M1000.82,276.4c-12.16-47.76-43.63-37.14-78.01-13.4,7.66-17.72,43.29-34.36,57.08-44.88-18.63-46.76-46.89-66.23-79.23-10.91-7.79,27.84-29.56,58.02-7.7,76.53,5.94-.3,13.02-13.07,27.14-24-5.12,8.81-13.9,16.12-17.78,23.34-.47,5.86-1.35,26.14,9.35,24.16,38.35-11.55,80.57,0,89.14-30.84h0Z"/><path class="cls-1" d="M827.5,109.02c-41.82-44.03-109.67,46.38-46.84,64.01,33.63,49.46,93.17-25.77,46.84-64.01Z"/></svg>