<?xml version="1.0" encoding="UTF-8"?><svg id="Calque_1" xmlns="http://www.w3.org/2000/svg" viewBox="0 0 999.44 639.47"><defs><style>.cls-1{fill:#b7cd00;}</style></defs><g><path class="cls-1" d="M833.5,516.7l-9.86-1.97-21.69-4.93c-3.95-12.82-17.75-67.05-23.66-108.47-.99-7.4-1.97-13.81-2.46-20.22l-.49-9.86-7.4,6.41c-26.13,22.19-47.82,83.32-63.11,127.7-5.92,15.78-11.84,32.05-14.79,37.47-1.48,0-2.96,.49-3.94,.49-11.83,0-22.68-6.41-32.05-19.23-18.24-23.66-24.65-59.66-23.17-69.03,2.46-1.97,5.42-2.46,11.83-3.45,7.89-1.48,17.75-2.96,32.54-8.87l2.46-.98,.49-2.47c3.45-17.26,1.97-108.96-4.44-116.85l-1.48-1.97h-2.46l-3.45,.49-.99,1.97c-20.21,18.74-50.29,72.97-71.98,114.88l-3.95,7.39v.49l-.49,.99c-.49,8.38,0,19.72,.49,32.54,.49,34.02,1.97,80.37-13.8,96.14-3.45,3.95-7.89,5.92-13.81,5.92-7.4,0-16.76-3.45-27.61-9.86-9.86-42.89-14.3-90.22-18.24-136.08-2.96-34.51-6.41-70.5-12.33-104.52v-.99l-.49-7.4c-7.4-70.01-24.16-134.1-41.91-201.65-9.37-34.51-18.74-71-27.12-108.96,3.95-2.96,19.72-5.92,27.61-7.4,8.38-1.48,13.31-2.46,14.79-3.45,2.46-.49,4.44-.99,5.92-.99,2.96,0,4.93,.99,5.92,3.45,42.4,111.92,78.39,213.98,94.66,325.9l1.48,11.34,7.39-8.87c34.51-45.85,68.53-70.5,95.16-70.5,11.34,0,21.2,4.44,29.09,12.82,17.75,19.72,24.65,59.16,19.23,108.47l-.99,12.33,9.37-7.89c21.2-18.24,23.66-50.29,25.64-80.86,3.45-45.86,6.41-85.3,61.63-86.28-16.76,67.55-.99,257.86,2.46,296.81Z"/><path class="cls-1" d="M231.99,436.83c-13.8,80.86-16.76,148.9-9.86,202.15-3.45,.49-6.9,.49-10.35,.49-18.24,0-32.05-7.89-41.91-24.65-46.84-81.35,19.72-349.07,105.02-496.98,31.06-53.74,60.64-83.32,83.32-83.32,4.44,0,8.38,.98,12.33,2.96,7.4,13.31,55.71,144.95,64.59,276.1l.49,4.93,4.93-.49h4.44c12.82,0,29.09,2.96,50.78,9.37l-.98,1.48c-3.45,4.93-11.83,11.83-20.22,19.72-23.17,19.72-37.47,33.53-35.5,44.86,5.42,164.68-4.93,186.86-13.81,206.58-10.85,21.2-20.71,23.67-28.1,23.67-1.97,0-3.94,0-5.92-.49,.49-24.16,0-124.74-2.46-185.38v-8.87l-7.39,4.93c-14.79,9.86-31.56,15.28-48.32,15.28-25.64,0-49.8-12.33-64.59-32.05,23.67-13.31,65.57-36.49,111.92-63.11l2.46-1.48-.49-2.96c-7.89-63.6-21.2-123.75-33.53-181.44l-3.45-15.28-2.46-11.83-6.41,10.35c-41.91,68.53-72.97,144.95-94.17,234.19l-10.35,51.27Z"/></g><path class="cls-1" d="M77.18,281.82C36.31,232.58,11.64,256.35,.9,305.46c14.37,8.24,49.87,16.8,61.02,32.5-40.24-23.45-58.2-12.36-61.93,32.21,11.18,32.12,45.86,12.76,83.12,18.1,9.73,.23,6-22.36,4.73-28.86-5.52-8.86-13.33-13.87-21.27-22.67,15.73,8.51,24.69,19.85,30.64,19.23,18.52-21.77-7.82-48.02-20.04-74.16h0Z"/><path class="cls-1" d="M999.44,276.02c-12.15-47.7-43.57-37.09-77.9-13.38,7.65-17.69,43.24-34.31,57-44.82-18.61-46.7-46.83-66.14-79.12-10.9-7.78,27.8-29.52,57.94-7.69,76.42,5.93-.3,13-13.05,27.1-23.96-5.11,8.8-13.88,16.1-17.76,23.31-.47,5.86-1.34,26.1,9.34,24.13,38.29-11.53,80.46,0,89.02-30.8h0Z"/><path class="cls-1" d="M826.36,108.87c-41.76-43.97-109.52,46.32-46.78,63.92,33.59,49.39,93.04-25.73,46.78-63.92Z"/></svg>