<?xml version="1.0" encoding="UTF-8"?><svg id="Calque_1" xmlns="http://www.w3.org/2000/svg" viewBox="0 0 1080 1080"><defs><style>.cls-1{fill:#aecd00;}</style></defs><path class="cls-1" d="M825.92,192.84c-34.97,0-63.31,28.35-63.31,63.31s28.34,63.32,63.31,63.32,63.32-28.35,63.32-63.32-28.35-63.31-63.32-63.31Z"/><path class="cls-1" d="M544.44,274.03c-146.66,0-265.98,119.31-265.98,265.97s119.32,265.97,265.98,265.97,265.97-119.32,265.97-265.97-119.32-265.97-265.97-265.97Zm0,436.34c-93.95,0-170.38-76.42-170.38-170.37s76.43-170.37,170.38-170.37,170.36,76.42,170.36,170.37-76.42,170.37-170.36,170.37Z"/><path class="cls-1" d="M755.58,1080H324.4C145.52,1080,0,934.48,0,755.6V324.4C0,145.52,145.52,0,324.4,0h431.18c178.88,0,324.42,145.52,324.42,324.4v431.21c0,178.88-145.54,324.4-324.42,324.4ZM324.4,101.61c-122.86,0-222.79,99.93-222.79,222.79v431.21c0,122.86,99.94,222.79,222.79,222.79h431.18c122.86,0,222.81-99.94,222.81-222.79V324.4c0-122.85-99.95-222.79-222.81-222.79H324.4Z"/></svg>