<?xml version="1.0" encoding="UTF-8"?><svg id="Calque_1" xmlns="http://www.w3.org/2000/svg" viewBox="0 0 836.32 1080"><defs><style>.cls-1{fill:#aecd00;fill-rule:evenodd;}</style></defs><path class="cls-1" d="M349.71,704.5c-.92,3.1-1.76,5.71-2.44,8.33-39.66,155.43-44.07,189.95-84.84,262.13-19.45,34.29-41.35,66.81-65.56,97.92-2.74,3.52-5.29,8.06-10.77,6.95-5.97-1.28-6.44-6.65-7.09-11.43-6.53-47.22-10.12-94.59-8.56-142.27,2.06-62.12,9.74-83.44,89.81-420.14,1.17-5.14-.14-9.41-1.86-14.04-19.16-51.71-22.94-104.18-6.21-157.36,36.24-114.84,166.44-123.65,189.21-28.88,14.01,58.61-23.08,135.3-51.56,248.67-23.59,93.55,86.51,160.04,180.63,91.75,86.79-62.95,120.47-213.87,114.07-320.82-12.62-213.25-246.45-259.34-394.82-190.67C119.64,213.28,80.98,424.11,157.77,520.45c9.74,12.26,17.24,19.75,14.03,32.17-4.95,19.29-9.31,38.73-14.64,57.92-3.97,14.27-15.92,19.47-30.35,13.6-28.31-11.44-51.89-29.49-71.02-53.21-65.22-80.76-83.88-240.48,2.35-375.71C153.66,45.41,331.35-15.19,493.58,3.19c193.76,22.04,316.25,154.43,339.18,304.62,10.45,68.42,2.92,237.14-93.12,356.38-110.49,137.03-289.6,146.11-372.24,62.01-6.37-6.44-11.47-14-17.7-21.7Z"/></svg>