<?xml version="1.0" encoding="UTF-8"?><svg id="Calque_1" xmlns="http://www.w3.org/2000/svg" viewBox="0 0 1080 888.91"><defs><style>.cls-1{fill:#aecd00;}</style></defs><path class="cls-1" d="M1075.57,106.56c-34.29,15.51-72.22,24.92-109.23,31.14,17.56-2.96,43.35-34.76,53.7-47.62,15.77-19.61,28.87-41.96,36.24-66.1,.96-1.88,1.65-4.25-.23-5.67-2.38-.94-3.9-.46-5.79,.48-41.3,22.14-84.03,38.18-129.51,49.55-3.75,.94-6.56,0-8.93-2.36-3.77-4.25-7.31-8.27-11.31-11.57-19.11-16.27-39.62-29.02-62.73-38.44-30.36-12.37-63.52-17.61-96.21-15.49-31.81,2.07-63.05,11.03-91.27,25.78-28.29,14.78-53.54,35.35-73.64,60.15-20.78,25.66-36.11,55.95-43.96,88.08-7.57,30.98-6.96,61.66-2.33,92.97,.69,5.21,.23,5.9-4.46,5.21C348.04,246.18,200.62,182.53,80.93,46.16c-5.19-5.92-8-5.92-12.27,.45-52.38,78.5-26.97,204.61,38.46,266.6,8.73,8.27,17.69,16.52,27.35,24.06-3.52,.73-47.06-3.99-85.86-24.06-5.19-3.29-7.8-1.4-8.27,4.5-.48,8.48,.25,16.29,1.42,25.48,10.04,79.58,65.15,153.18,140.62,181.89,8.96,3.77,18.87,7.08,28.52,8.73-17.19,3.77-34.9,6.46-84.21,2.6-6.14-1.18-8.48,1.9-6.14,7.79,37.05,100.99,117.03,131.05,176.94,148.16,8.02,1.41,16.04,1.41,24.09,3.29-.49,.73-.97,.73-1.44,1.42-19.86,30.29-88.74,52.83-120.83,64.04-58.33,20.4-121.86,29.56-183.51,23.5-9.87-1.46-11.94-1.34-14.62,0-2.71,1.67-.35,4.03,2.83,6.58,12.52,8.27,25.25,15.59,38.23,22.67,39.16,20.75,79.98,37.29,122.67,49.07,220.47,60.88,468.8,16.14,634.34-148.33,129.99-129.15,175.56-307.27,175.56-485.61,0-6.98,8.24-10.83,13.13-14.52,33.83-25.42,61.11-55.82,86.34-89.78,5.65-7.62,5.72-14.4,5.72-17.19v-.93c0-2.86-.07-2-4.43,0Z"/></svg>